<svg baseprofile="tiny" fill="none" height="1000" stroke="#DDD5C0" stroke-linecap="round" stroke-linejoin="round" stroke-width="1" version="1.2" viewBox="0 0 1000 1000" width="1000" xmlns="http://www.w3.org/2000/svg">
 <g id="features">
  <path d="M363.9 175.2l2 0.5-0.1 9.3 3.4 1.2 1-1.6 1.9-8.1 2.1 0.2 0.2-2.2 1.9 0.2 1.3-3.7 8.1 0.9-0.6 2.1-3.7-0.6-0.2 2 2.4 0.7-2.4 4.2 1.9 2.5-0.4 4.5 5.5 1.6 3.7 2.9-2.6 4 10.4 5 0.8-0.8 1.6 0.1 1.9 1.5 1 3.5-0.4 1.6-1.4 1.2-2 5.3 2.8 1.8 0.7 0.8 2.1 0.7-1.4 3.9-0.1 0.6 0 0.6 0.1 0.6 0.2 1.9 2.1 1.4-0.7 2.3 0.7 1.6 8.7-2 1 0.6-0.8 2 0.9 0.7-0.6 1-0.2 0.6-1 0.9-0.3 0.7-0.3 0.7 0.2 0.7 0.3 0.4 0.7 0.2 0.5 0.3 0.8 1.1 0.1 0.6-0.2 0.4-0.2 0.5 0 0.5 2.4 2.1 0.8-0.9 0.3-0.4 0.1-0.3 0.1-0.4 0.3-0.3 1.2-1.1 0.2-0.7 0-0.3 0.1-0.3-0.1-0.8-0.1-0.2 0.2-0.9 0.5-0.6 0.2-0.7 0.2-0.2 0.3-0.1 0.3-0.1 0.2-0.2 0.1-0.2 0.2-0.5 0.1-0.3 0-0.6-0.5-0.4 0.1-1.2 0.6-0.7-0.1-0.2-0.1-0.1-0.3-0.2-0.1-0.1-0.1-0.1-0.2-0.7 0-0.3 0-0.3 0.3-0.6 0.2-0.1 0.2-0.2 1.5-0.3 0.5-0.8 1 0-0.3 0.9-0.1 1 0.2 0.4 0.8 0.2 4.7 0 0.5 0 0.4 0.1 0.3 0.2 0.4 0.4-5.5 6.7-0.5 0.1 3.2 6.3 0.2 0 0.3 0 0.4-0.2 0.7-0.6 0.2-0.1 0.3 0 0.3-0.1 0 0.5 0 0.6-0.1 0.5-0.9 2.5-0.3 0.6-0.6 1-0.8 0.7-0.7 0.5-0.1 0.4 0.1 0.4 0.2 0.4 0.3 0.3 0 0.4-0.1 0.7-0.6 2.4-0.3 0.7-0.5 0.8-0.6 1.8-0.1 2.2 0.2 0.9 0.4 0.6 0.3 0.2 0.1 0.2 0 0.3z" id="ZANC"/>
  <path d="M588.2 343l-0.1-0.1-0.4-0.3-0.1-0.1-0.1-0.1 0-0.2-0.1-0.5 0-0.2-0.1-0.2 0-0.1-0.2-0.1-0.4-0.1-0.1-0.1-0.1-0.2-0.1-0.2 0-0.7-0.1-0.3-0.1-0.3-0.1-0.4 0-0.3 0-0.2 0-0.2 0-0.3-0.1-0.3-0.4-0.4-0.7-0.6-0.3 0z" id="ZAKZN"/>
  <path d="M447.9 327l-1.1-0.8-1-0.9-1.1-0.7-1.4 0.1z" id="ZAFS"/>
  <path d="M408.7 367.8l0.2-1.1 0.8-0.3 1.8 0 2.7-1.1 4.9-0.5z" id="ZAEC"/>
  <path d="M637.5 104.7l-0.1 0.1-0.3 0.1-0.2 0z" id="ZALP"/>
  <path d="M434.4 240.3l-0.3 0.1-0.3 0z" id="ZANW"/>
  <path d="M619.3 212.3l-1.7 2.2-1 0.9z" id="ZAMP"/>
  <path d="M219.3 345.7l1.6 0.5 0.2-3.7z" id="ZAWC"/>
  <path d="M530.6 201l-0.3 0-0.6 0.2z" id="ZAGP"/>
 </g>
</svg>
